<mxfile host="app.diagrams.net" modified="2023-11-05T02:42:05.184Z" agent="Mozilla/5.0 (Windows NT 10.0; Win64; x64) AppleWebKit/537.36 (KHTML, like Gecko) Chrome/119.0.0.0 Safari/537.36 Edg/119.0.0.0" etag="77w-WmKeAjvy3T82QA48" version="22.0.8" type="github">
  <diagram name="第 1 页" id="aCDHrkkyamr7xV3IrZCD">
    <mxGraphModel dx="929" dy="620" grid="1" gridSize="10" guides="1" tooltips="1" connect="1" arrows="1" fold="1" page="1" pageScale="1" pageWidth="827" pageHeight="1169" math="0" shadow="0">
      <root>
        <mxCell id="0" />
        <mxCell id="1" parent="0" />
        <mxCell id="XuCJzYFvjozUz2xRGzi7-1" value="" style="rounded=0;whiteSpace=wrap;html=1;" vertex="1" parent="1">
          <mxGeometry x="354" y="170" width="206" height="240" as="geometry" />
        </mxCell>
        <mxCell id="XuCJzYFvjozUz2xRGzi7-2" value="&lt;font style=&quot;font-size: 14px;&quot;&gt;项目邮件子系统&lt;/font&gt;" style="text;html=1;strokeColor=none;fillColor=none;align=center;verticalAlign=middle;whiteSpace=wrap;rounded=0;" vertex="1" parent="1">
          <mxGeometry x="402" y="190" width="110" height="30" as="geometry" />
        </mxCell>
        <mxCell id="XuCJzYFvjozUz2xRGzi7-3" value="编辑邮件内容" style="ellipse;whiteSpace=wrap;html=1;" vertex="1" parent="1">
          <mxGeometry x="397" y="240" width="120" height="40" as="geometry" />
        </mxCell>
        <mxCell id="XuCJzYFvjozUz2xRGzi7-4" value="发送电子邮件" style="ellipse;whiteSpace=wrap;html=1;" vertex="1" parent="1">
          <mxGeometry x="397" y="290" width="120" height="40" as="geometry" />
        </mxCell>
        <mxCell id="XuCJzYFvjozUz2xRGzi7-5" value="接收信息" style="ellipse;whiteSpace=wrap;html=1;" vertex="1" parent="1">
          <mxGeometry x="397" y="350" width="120" height="40" as="geometry" />
        </mxCell>
        <mxCell id="XuCJzYFvjozUz2xRGzi7-6" value="Actor" style="shape=umlActor;verticalLabelPosition=bottom;verticalAlign=top;html=1;outlineConnect=0;fontColor=none;noLabel=1;" vertex="1" parent="1">
          <mxGeometry x="270" y="250" width="30" height="60" as="geometry" />
        </mxCell>
        <mxCell id="XuCJzYFvjozUz2xRGzi7-7" value="项目管理人员" style="text;html=1;strokeColor=none;fillColor=none;align=center;verticalAlign=middle;whiteSpace=wrap;rounded=0;" vertex="1" parent="1">
          <mxGeometry x="240" y="320" width="77.5" height="30" as="geometry" />
        </mxCell>
        <mxCell id="XuCJzYFvjozUz2xRGzi7-8" value="Actor" style="shape=umlActor;verticalLabelPosition=bottom;verticalAlign=top;html=1;outlineConnect=0;fontColor=none;noLabel=1;" vertex="1" parent="1">
          <mxGeometry x="620" y="250" width="30" height="60" as="geometry" />
        </mxCell>
        <mxCell id="XuCJzYFvjozUz2xRGzi7-9" value="项目成员" style="text;html=1;strokeColor=none;fillColor=none;align=center;verticalAlign=middle;whiteSpace=wrap;rounded=0;" vertex="1" parent="1">
          <mxGeometry x="610" y="320" width="60" height="30" as="geometry" />
        </mxCell>
        <mxCell id="XuCJzYFvjozUz2xRGzi7-10" value="" style="endArrow=classic;html=1;rounded=0;exitX=1;exitY=0.3333333333333333;exitDx=0;exitDy=0;exitPerimeter=0;entryX=0;entryY=0.5;entryDx=0;entryDy=0;" edge="1" parent="1" source="XuCJzYFvjozUz2xRGzi7-6" target="XuCJzYFvjozUz2xRGzi7-3">
          <mxGeometry width="50" height="50" relative="1" as="geometry">
            <mxPoint x="320" y="270" as="sourcePoint" />
            <mxPoint x="370" y="220" as="targetPoint" />
          </mxGeometry>
        </mxCell>
        <mxCell id="XuCJzYFvjozUz2xRGzi7-11" value="" style="endArrow=classic;html=1;rounded=0;entryX=0;entryY=0.5;entryDx=0;entryDy=0;exitX=1;exitY=0.3333333333333333;exitDx=0;exitDy=0;exitPerimeter=0;" edge="1" parent="1" source="XuCJzYFvjozUz2xRGzi7-6" target="XuCJzYFvjozUz2xRGzi7-4">
          <mxGeometry width="50" height="50" relative="1" as="geometry">
            <mxPoint x="210" y="410" as="sourcePoint" />
            <mxPoint x="260" y="360" as="targetPoint" />
          </mxGeometry>
        </mxCell>
        <mxCell id="XuCJzYFvjozUz2xRGzi7-12" value="" style="endArrow=classic;html=1;rounded=0;exitX=0;exitY=0.3333333333333333;exitDx=0;exitDy=0;exitPerimeter=0;entryX=1;entryY=0.5;entryDx=0;entryDy=0;" edge="1" parent="1" source="XuCJzYFvjozUz2xRGzi7-8" target="XuCJzYFvjozUz2xRGzi7-5">
          <mxGeometry width="50" height="50" relative="1" as="geometry">
            <mxPoint x="590" y="460" as="sourcePoint" />
            <mxPoint x="640" y="410" as="targetPoint" />
          </mxGeometry>
        </mxCell>
      </root>
    </mxGraphModel>
  </diagram>
</mxfile>
